<?xml version="1.0" standalone="no"?>
<!DOCTYPE svg PUBLIC "-//W3C//DTD SVG 20010904//EN"
 "http://www.w3.org/TR/2001/REC-SVG-20010904/DTD/svg10.dtd">
<svg version="1.0" xmlns="http://www.w3.org/2000/svg"
 width="480.000000pt" height="480.000000pt" viewBox="0 0 480.000000 480.000000"
 preserveAspectRatio="xMidYMid meet">
<metadata>
Created by potrace 1.11, written by Peter Selinger 2001-2013
</metadata>
<g transform="translate(0.000000,480.000000) scale(0.100000,-0.100000)"
fill="#000000" stroke="none">
<path d="M0 2400 l0 -2400 2400 0 2400 0 0 2400 0 2400 -2400 0 -2400 0 0
-2400z m1841 1247 c49 -33 54 -56 39 -205 l-12 -132 -179 0 -178 0 6 65 6 65
-185 0 -186 0 -5 -32 c-3 -18 -9 -68 -13 -110 l-6 -78 307 0 c344 0 360 -3
390 -66 15 -32 14 -50 -10 -281 -28 -264 -38 -300 -88 -337 -28 -21 -39 -21
-494 -21 l-465 0 -30 34 -31 34 7 106 c3 58 9 123 12 144 l7 37 174 0 175 0
-4 -65 -4 -65 188 0 c144 0 188 3 188 13 0 16 19 185 25 219 l4 27 -324 3
-324 3 -29 28 c-17 16 -32 40 -35 53 -4 23 36 429 48 484 7 31 48 74 85 89 15
6 199 10 466 10 l441 1 34 -23z m1084 9 c18 -8 41 -26 51 -41 16 -24 16 -35 0
-191 -9 -92 -23 -178 -31 -194 -9 -18 -40 -41 -90 -66 -41 -22 -75 -41 -75
-45 0 -3 22 -13 49 -23 60 -21 90 -52 98 -99 9 -56 -26 -355 -48 -405 -14 -33
-28 -47 -61 -62 -40 -18 -68 -20 -462 -20 l-419 0 6 48 c3 26 29 287 58 580
l54 532 418 0 c338 0 424 -3 452 -14z m1114 -1 c53 -27 55 -48 27 -310 -28
-261 -36 -287 -98 -318 -20 -10 -68 -21 -107 -24 l-70 -6 120 -238 c65 -132
119 -241 119 -244 0 -3 -85 -5 -190 -5 l-190 0 -103 207 -104 206 -17 -169
c-10 -93 -20 -186 -23 -206 l-6 -38 -174 0 -174 0 6 48 c3 26 26 268 50 537
24 270 47 509 50 533 l6 42 425 0 c352 0 430 -2 453 -15z m-1058 -1622 c0
-142 4 -278 7 -303 l7 -45 111 215 110 215 114 3 c62 1 117 -1 121 -5 5 -5 38
-105 74 -223 36 -118 67 -215 68 -216 1 -1 40 137 86 307 l84 309 199 0 c113
0 198 -4 198 -9 0 -5 -22 -99 -49 -208 -27 -109 -95 -390 -152 -626 l-103
-427 -180 2 -180 3 -110 278 -110 278 -26 -43 c-15 -24 -95 -149 -178 -278
l-150 -235 -171 -3 -171 -2 0 237 c0 131 -3 417 -7 636 l-6 397 206 0 207 0 1
-257z m-2121 170 c26 -44 190 -398 190 -410 0 -11 -21 -13 -102 -11 l-103 3
-97 197 c-53 108 -99 206 -103 217 -6 20 -3 21 99 21 90 0 107 -3 116 -17z
m621 -184 c53 -108 100 -206 104 -218 l7 -22 -163 3 -162 3 -98 205 c-54 113
-98 211 -98 218 -1 10 34 12 157 10 l157 -3 96 -196z m844 -9 c3 -115 4 -214
0 -220 -4 -6 -95 -10 -264 -10 l-258 0 -102 213 c-55 116 -101 215 -101 220 0
4 161 7 359 7 l358 0 8 -210z m-1040 -697 c54 -115 101 -212 103 -216 2 -4
-47 -6 -108 -5 l-111 3 -91 190 c-49 105 -94 200 -99 213 -8 22 -8 22 99 22
l109 0 98 -207z m536 -7 c54 -115 99 -210 99 -212 0 -2 -72 -4 -161 -4 l-160
0 -48 103 c-27 56 -72 149 -100 206 -28 57 -51 107 -51 112 0 6 68 8 161 7
l161 -3 99 -209z m509 82 c0 -73 3 -170 7 -216 l6 -83 -107 3 -107 3 -99 209
c-55 116 -100 211 -100 213 0 2 90 3 200 3 l200 0 0 -132z"/>
<path d="M2376 3378 c-4 -35 -9 -84 -13 -110 l-6 -48 126 0 125 0 6 78 c4 42
10 92 13 110 l5 32 -125 0 -124 0 -7 -62z"/>
<path d="M2336 3008 c-5 -15 -26 -224 -26 -251 0 -16 11 -17 122 -15 l123 3
15 138 16 137 -123 0 c-90 0 -125 -3 -127 -12z"/>
<path d="M3460 3433 c0 -13 -19 -184 -25 -230 l-6 -43 145 0 145 0 5 33 c6 34
26 219 26 237 0 6 -51 10 -145 10 -80 0 -145 -3 -145 -7z"/>
</g>
</svg>
